<?xml version="1.0" encoding="UTF-8" standalone="no" ?>
<!DOCTYPE svg PUBLIC "-//W3C//DTD SVG 1.1//EN" "http://www.w3.org/Graphics/SVG/1.1/DTD/svg11.dtd">
<svg xmlns="http://www.w3.org/2000/svg" xmlns:xlink="http://www.w3.org/1999/xlink" version="1.1" width="1080" height="1080" viewBox="0 0 1080 1080" xml:space="preserve">
<desc>Created with Fabric.js 5.2.4</desc>
<defs>
</defs>
<g transform="matrix(1 0 0 1 540 540)" id="66038c8a-139f-4d7b-af08-791a88fb951b"  >
<rect style="stroke: none; stroke-width: 1; stroke-dasharray: none; stroke-linecap: butt; stroke-dashoffset: 0; stroke-linejoin: miter; stroke-miterlimit: 4; fill: rgb(255,255,255); fill-rule: nonzero; opacity: 1; visibility: hidden;" vector-effect="non-scaling-stroke"  x="-540" y="-540" rx="0" ry="0" width="1080" height="1080" />
</g>
<g transform="matrix(1 0 0 1 540 540)" id="2eac02f7-8358-4221-9427-63fda37ffb1b"  >
</g>
<g transform="matrix(2.27 0 0 2.27 540 456.85)"  >
<g style="" vector-effect="non-scaling-stroke"   >
		<g transform="matrix(1 0 0 1 -45.2 7.23)" id="Fill-1"  >
<path style="stroke: none; stroke-width: 1; stroke-dasharray: none; stroke-linecap: butt; stroke-dashoffset: 0; stroke-linejoin: miter; stroke-miterlimit: 4; fill: rgb(216,63,19); fill-rule: evenodd; opacity: 1;" vector-effect="non-scaling-stroke"  transform=" translate(-47.65, -27.2)" d="M 88.7 10.6 L 90.60000000000001 11.4 C 87.30000000000001 12.700000000000001 84.4 14.100000000000001 81.80000000000001 15.600000000000001 L 79.10000000000001 15.200000000000001 C 81.6 13.8 85.1 12.1 88.7 10.6 M 95.3 11.7 L 78 3.1 L 78 3.1 C 76.7 3.3000000000000003 75.3 3.5 74.1 3.7 L 85.8 8.8 C 85.6 9 85.4 9 85.1 9.1 L 72.6 4 C 70.19999999999999 4.4 67.8 5 65.8 5.5 L 77 9.1 C 76.5 9.299999999999999 76.3 9.4 75.8 9.7 L 63.7 6.1 C 60.1 7.1 56.400000000000006 8.3 51.5 10.3 L 51.5 10.3 L 74.4 14.3 C 73.80000000000001 14.600000000000001 73.4 14.9 72.7 15.200000000000001 L 48.400000000000006 11.600000000000001 C 42.60000000000001 14.100000000000001 35.900000000000006 17.900000000000002 30.500000000000007 21.400000000000002 L 30.500000000000007 21.400000000000002 L 54.400000000000006 21.400000000000002 L 54.400000000000006 21.400000000000002 C 53.300000000000004 22.1 52.400000000000006 22.700000000000003 51.10000000000001 23.6 L 51.10000000000001 23.6 L 26.10000000000001 24.400000000000002 L 26.10000000000001 24.400000000000002 C 21.500000000000007 27.700000000000003 16.800000000000008 31.6 14.100000000000009 34 C 11.4 36.3 3.6 44.2 0 51.3 L 29.2 43.699999999999996 L 29.2 43.699999999999996 C 27.9 45.599999999999994 26.8 47.699999999999996 26.2 49.49999999999999 L 57.9 39.39999999999999 C 57.6 31.999999999999993 64.8 25.39999999999999 69.6 21.39999999999999 L 73.6 21.39999999999999 C 67.39999999999999 26.699999999999992 64.5 32.599999999999994 65.3 37.099999999999994 L 75.2 33.99999999999999 C 72.9 27.8 79.4 16.9 95.3 11.7" stroke-linecap="round" />
</g>
		<g transform="matrix(1 0 0 1 52.4 -19.73)" id="Fill-4"  >
<path style="stroke: none; stroke-width: 1; stroke-dasharray: none; stroke-linecap: butt; stroke-dashoffset: 0; stroke-linejoin: miter; stroke-miterlimit: 4; fill: rgb(20,27,77); fill-rule: evenodd; opacity: 1;" vector-effect="non-scaling-stroke"  transform=" translate(-145.25, -11.6)" d="M 140.7 2.5 L 140.7 20.7 L 145.5 20.7 C 147.6 20.7 149.3 20 150.6 18.599999999999998 C 151.79999999999998 17.2 152.4 15.399999999999999 152.4 13.199999999999998 L 152.4 10 C 152.4 7.8 151.8 6 150.6 4.6 C 149.4 3.1999999999999997 147.7 2.4999999999999996 145.5 2.4999999999999996 L 140.7 2.4999999999999996 z M 145.4 0 C 148.4 0 150.8 0.9 152.70000000000002 2.8 C 154.60000000000002 4.699999999999999 155.50000000000003 7.1 155.50000000000003 10 L 155.50000000000003 13.2 C 155.50000000000003 16.099999999999998 154.60000000000002 18.5 152.70000000000002 20.4 C 150.9 22.2 148.4 23.2 145.4 23.2 L 135 23.2 L 135 21.2 L 137.6 20.8 L 137.6 2.5 L 135 2 L 135 0 L 137.6 0 L 145.4 0 z" stroke-linecap="round" />
</g>
		<g transform="matrix(1 0 0 1 78.15 -19.77)" id="Fill-6"  >
<polygon style="stroke: none; stroke-width: 1; stroke-dasharray: none; stroke-linecap: butt; stroke-dashoffset: 0; stroke-linejoin: miter; stroke-miterlimit: 4; fill: rgb(20,27,77); fill-rule: evenodd; opacity: 1;" vector-effect="non-scaling-stroke"  points="-7.4,-9.5 -9.7,-9.2 -6.7,3.6 -6.3,6.4 -6.2,6.5 -5.6,3.6 -1.3,-11.5 1.4,-11.5 5.7,3.6 6.3,6.5 6.4,6.5 6.9,3.6 9.8,-9.2 7.4,-9.5 7.4,-11.5 14.7,-11.5 14.7,-9.5 12.9,-9.3 7.9,11.5 5.1,11.5 0.5,-4.5 0.1,-6.5 0,-6.5 -0.4,-4.5 -5,11.5 -7.8,11.5 -12.8,-9.3 -14.7,-9.5 -14.7,-11.5 -7.4,-11.5 " />
</g>
		<g transform="matrix(1 0 0 1 29.85 -19.72)" id="Fill-9"  >
<path style="stroke: none; stroke-width: 1; stroke-dasharray: none; stroke-linecap: butt; stroke-dashoffset: 0; stroke-linejoin: miter; stroke-miterlimit: 4; fill: rgb(20,27,77); fill-rule: evenodd; opacity: 1;" vector-effect="non-scaling-stroke"  transform=" translate(-41.7, -11.25)" d="M 36.9 11 L 36.9 2.1 L 36.9 2.1 L 41.8 2.1 C 43.099999999999994 2.1 44.099999999999994 2.4 44.9 3 C 45.1 3.1 45.199999999999996 3.2 45.4 3.4 C 46 4 46.3 4.7 46.5 5.6 C 46.6 5.8999999999999995 46.6 6.3 46.6 6.6 C 46.6 7.8999999999999995 46.2 8.899999999999999 45.4 9.8 C 44.699999999999996 10.5 43.699999999999996 10.9 42.4 11 C 42.199999999999996 11 42.1 11 41.9 11 L 36.9 11 z M 49.9 20.4 L 44.199999999999996 13.299999999999999 C 45.599999999999994 12.999999999999998 46.699999999999996 12.499999999999998 47.599999999999994 11.6 C 48.99999999999999 10.299999999999999 49.699999999999996 8.7 49.699999999999996 6.6 C 49.699999999999996 5.199999999999999 49.4 3.8999999999999995 48.699999999999996 2.8999999999999995 C 48.4 2.3999999999999995 48.099999999999994 1.9999999999999996 47.699999999999996 1.5999999999999994 C 46.8 0.6999999999999994 45.599999999999994 0.1999999999999995 44.199999999999996 -0.10000000000000053 C 43.49999999999999 -0.20000000000000054 42.8 -0.30000000000000054 41.99999999999999 -0.30000000000000054 L 39.699999999999996 -0.30000000000000054 L 39.699999999999996 -0.30000000000000054 L 31.399999999999995 -0.30000000000000054 L 31.399999999999995 -0.30000000000000054 L 31.399999999999995 1.6999999999999995 L 31.399999999999995 1.6999999999999995 L 33.99999999999999 2.0999999999999996 L 33.99999999999999 20.299999999999997 L 31.39999999999999 20.699999999999996 L 31.39999999999999 20.699999999999996 L 31.39999999999999 22.699999999999996 L 31.39999999999999 22.699999999999996 L 39.69999999999999 22.699999999999996 L 39.69999999999999 20.699999999999996 L 39.69999999999999 20.699999999999996 L 39.69999999999999 20.699999999999996 L 37.09999999999999 20.299999999999997 L 37.09999999999999 13.499999999999996 L 40.69999999999999 13.499999999999996 L 46.39999999999999 20.599999999999994 L 44.599999999999994 20.799999999999994 L 44.599999999999994 22.799999999999994 L 52 22.799999999999994 L 52 20.799999999999994 L 49.9 20.4 z" stroke-linecap="round" />
</g>
</g>
</g>
</svg>